<svg width="50" height="50" viewBox="0 0 50 50" fill="none" xmlns="http://www.w3.org/2000/svg">
<path d="M29.3845 12.2187H20.5981V15.1475H29.3845V12.2187Z" fill="#D9D9D9"/>
<path d="M24.9921 0L0 10.0258V19.4863L3.02637 18.2808V50H46.9578V18.2809L49.9842 19.4864V10.0259L24.9921 0ZM20.5989 47.0713H11.8126V38.1874H14.7413V41.1162H17.6701V38.1874H20.5988V47.0713H20.5989ZM20.5989 35.2586H11.8126V26.4723H14.7413V29.401H17.6701V26.4723H20.5988V35.2586H20.5989ZM32.314 47.0713H23.5277V38.1874H26.4564V41.1162H29.3853V38.1874H32.314V47.0713ZM38.1715 47.0713H35.2427V35.2586H23.5277V23.5436H11.8127V20.9077H38.1716V47.0713H38.1715ZM44.029 47.0713H41.1002V17.9789H8.88389V47.0713H5.95517V17.1142L24.9921 9.53047L44.029 17.1141V47.0713ZM47.0555 15.1671L24.9921 6.37783L2.92871 15.1671V12.0065L24.9921 3.15566L47.0555 12.0065V15.1671Z" fill="#D9D9D9"/>
</svg>
