<svg width="50" height="42" viewBox="0 0 50 42" fill="none" xmlns="http://www.w3.org/2000/svg">
<path d="M29.4922 8.78906V23.4375H26.3672C26.3672 22.4316 26.3672 1.27907 26.3672 0C24.9435 0 1.4225 0 0 0V35.1562H5.85938C5.85938 38.3873 8.4877 41.0156 11.7188 41.0156C14.9498 41.0156 17.5781 38.3873 17.5781 35.1562H32.4219C32.4219 38.3873 35.0502 41.0156 38.2812 41.0156C41.5123 41.0156 44.1406 38.3873 44.1406 35.1562H50V15.7677L46.5107 8.78906H29.4922ZM35.3516 11.7188V17.5781H32.4219V11.7188H35.3516ZM16.539 11.7188L23.4375 4.2778V11.7188H16.539ZM20.6924 14.6484L14.6484 21.1678V14.6484H20.6924ZM11.7188 11.7188H4.82025L11.7188 4.2778V11.7188ZM2.92969 14.6484H8.97369L2.92969 21.1678V14.6484ZM11.7188 15.9966V23.4375H4.82025L11.7188 15.9966ZM23.4375 15.9966V23.4375H16.539L23.4375 15.9966ZM20.6924 2.92969L14.6484 9.44901V2.92969H20.6924ZM8.97369 2.92969L2.92969 9.44901V2.92969H8.97369ZM11.7188 38.0859C10.1032 38.0859 8.78906 36.7718 8.78906 35.1562C8.78906 33.5407 10.1032 32.2266 11.7188 32.2266C13.3343 32.2266 14.6484 33.5407 14.6484 35.1562C14.6484 36.7718 13.3343 38.0859 11.7188 38.0859ZM16.79 32.2266C15.7749 30.4771 13.8828 29.2969 11.7188 29.2969C9.55467 29.2969 7.66258 30.4771 6.64749 32.2266H2.92969V26.3672H29.4922V32.2266H16.79ZM38.2812 38.0859C36.6657 38.0859 35.3516 36.7718 35.3516 35.1562C35.3516 33.5407 36.6657 32.2266 38.2812 32.2266C39.8968 32.2266 41.2109 33.5407 41.2109 35.1562C41.2109 36.7718 39.8968 38.0859 38.2812 38.0859ZM43.3525 32.2266C42.3374 30.4771 40.4453 29.2969 38.2812 29.2969C36.1172 29.2969 34.2251 30.4771 33.21 32.2266H32.4219V20.5078H36.2095L39.1392 23.4375H47.0703V26.3672H44.1406V29.2969H47.0703V32.2266C45.7962 32.2266 44.651 32.2266 43.3525 32.2266ZM47.0703 20.5078H40.353L38.2812 18.4361V11.7188H44.7002L47.0703 16.4589V20.5078Z" fill="#D9D9D9"/>
</svg>
