<svg width="40" height="40" viewBox="0 0 40 40" fill="none" xmlns="http://www.w3.org/2000/svg">
<path d="M1.47978 4.80761H5.72177L11.7642 26.6589C11.9368 27.3002 12.5287 27.7441 13.1946 27.7441H31.7658C32.3577 27.7441 32.8757 27.3988 33.1223 26.8563L39.8799 11.3186C40.0772 10.8501 40.0279 10.3321 39.7565 9.91283C39.4852 9.49353 39.0166 9.24693 38.5234 9.24693H18.0039C17.19 9.24693 16.5241 9.91283 16.5241 10.7267C16.5241 11.5406 17.19 12.2065 18.0039 12.2065H36.2545L30.7793 24.7846H14.3045L8.26211 2.93325C8.0895 2.29199 7.49759 1.84805 6.83169 1.84805H1.47978C0.665899 1.84805 0 2.51395 0 3.32783C0 4.14171 0.665899 4.80761 1.47978 4.80761Z" fill="#8C6EB6"/>
<path d="M11.7888 38.1519C13.6385 38.1519 15.143 36.6475 15.143 34.7978C15.143 32.9481 13.6385 31.4437 11.7888 31.4437C9.9391 31.4437 8.43469 32.948 8.43469 34.7977C8.43469 36.6474 9.9391 38.1519 11.7888 38.1519Z" fill="#8C6EB6"/>
<path d="M32.7524 38.1519C32.8264 38.1519 32.925 38.1519 32.999 38.1519C33.8869 38.0779 34.7008 37.6834 35.2927 36.9927C35.8846 36.3268 36.1559 35.4636 36.1066 34.5511C35.9832 32.726 34.3802 31.3202 32.5305 31.4436C30.6807 31.5669 29.2996 33.1947 29.4229 35.0197C29.5462 36.7708 31.0013 38.1519 32.7524 38.1519Z" fill="#8C6EB6"/>
</svg>
