<svg width="35" height="35" viewBox="0 0 35 35" fill="none" xmlns="http://www.w3.org/2000/svg">
<g clip-path="url(#clip0)">
<path d="M17.4706 33.0528C16.9731 33.0528 16.4935 32.8723 16.1198 32.5444C14.7083 31.3081 13.3474 30.1462 12.1467 29.1214L12.1406 29.116C8.62038 26.1111 5.58058 23.5162 3.46553 20.9599C1.10124 18.1021 0 15.3926 0 12.4326C0 9.55669 0.984478 6.9035 2.77189 4.9614C4.58064 2.99633 7.06249 1.91406 9.76108 1.91406C11.778 1.91406 13.6251 2.5528 15.251 3.81237C16.0715 4.44817 16.8153 5.22629 17.4706 6.13392C18.1261 5.22629 18.8696 4.44817 19.6904 3.81237C21.3162 2.5528 23.1634 1.91406 25.1803 1.91406C27.8786 1.91406 30.3607 2.99633 32.1695 4.9614C33.9569 6.9035 34.9411 9.55669 34.9411 12.4326C34.9411 15.3926 33.8401 18.1021 31.4758 20.9596C29.3608 23.5162 26.3213 26.1109 22.8016 29.1155C21.5988 30.1419 20.2358 31.3057 18.821 32.5449C18.4476 32.8723 17.9677 33.0528 17.4706 33.0528ZM9.76108 3.96431C7.64097 3.96431 5.69334 4.81186 4.27647 6.35101C2.83854 7.9134 2.04653 10.0731 2.04653 12.4326C2.04653 14.9221 2.97023 17.1486 5.04129 19.6517C7.04303 22.0713 10.0205 24.6128 13.4679 27.5558L13.4743 27.5611C14.6795 28.59 16.0457 29.7564 17.4676 31.0018C18.8981 29.754 20.2664 28.5857 21.474 27.5552C24.9212 24.6123 27.8983 22.0713 29.9001 19.6517C31.9709 17.1486 32.8946 14.9221 32.8946 12.4326C32.8946 10.0731 32.1026 7.9134 30.6646 6.35101C29.248 4.81186 27.3001 3.96431 25.1803 3.96431C23.6272 3.96431 22.2013 4.45885 20.9422 5.43404C19.8202 6.30348 19.0386 7.40257 18.5803 8.17162C18.3447 8.56709 17.9299 8.80314 17.4706 8.80314C17.0112 8.80314 16.5964 8.56709 16.3608 8.17162C15.9028 7.40257 15.1212 6.30348 13.9989 5.43404C12.7398 4.45885 11.3139 3.96431 9.76108 3.96431Z" fill="#8C6EB6"/>
</g>
<defs>
<clipPath id="clip0">
<rect width="34.9412" height="35" fill="white"/>
</clipPath>
</defs>
</svg>
