<svg width="250" height="59" viewBox="0 0 250 59" fill="none" xmlns="http://www.w3.org/2000/svg">
<g clip-path="url(#clip0)">
<path d="M26.0999 19.6812C26.7545 20.074 27.0601 20.8158 27.0601 21.9068C27.0601 22.9105 26.7982 23.6087 26.2308 24.0015C25.7071 24.3942 24.7905 24.5688 23.5248 24.5688H3.92807C2.61872 24.5688 1.61487 24.3506 0.960196 23.9578C0.305517 23.5651 0 22.8232 0 21.7323C0 20.7286 0.261872 20.0303 0.82926 19.6376C1.26571 19.3321 1.87675 19.1575 2.74965 19.1139C2.48778 17.4556 2.35684 14.9682 2.35684 11.6953C2.35684 10.2552 2.53142 8.94601 2.83694 7.76775C3.1861 6.5895 3.6662 5.5858 4.18994 4.75666C4.80098 3.92752 5.45566 3.18565 6.15398 2.53107C6.89595 1.92012 7.68157 1.44009 8.51083 1.09098C9.34009 0.741864 10.1693 0.436391 10.9986 0.261834C11.8279 0.0872781 12.6571 0 13.4427 0C14.4029 0 15.3631 0.130917 16.367 0.349112C17.3272 0.610947 18.331 1.0037 19.3348 1.61465C20.3387 2.22559 21.2552 2.92382 22.0409 3.75296C22.7828 4.62574 23.3939 5.71672 23.874 7.06953C24.3977 8.46598 24.6596 9.99334 24.6596 11.6516C24.6596 14.9682 24.5286 17.4556 24.2668 19.1139C25.0087 19.2012 25.6634 19.4194 26.0999 19.6812ZM10.7367 9.68787C10.7367 10.3425 10.6931 11.9135 10.6494 14.4009V19.0703H16.3233C16.3233 17.892 16.3233 16.321 16.2797 14.4009V9.73151C16.2797 9.1642 16.2797 8.68417 16.236 8.29142C16.1924 7.94231 16.1051 7.5932 16.0178 7.24408C15.9305 6.89497 15.7996 6.5895 15.5814 6.41494C15.3631 6.24039 15.1013 6.06583 14.7957 5.97855C14.4466 5.84763 14.0101 5.80399 13.4864 5.80399C12.3516 5.80399 11.566 6.10947 11.2168 6.67678C10.9113 7.24408 10.7367 8.24778 10.7367 9.68787Z" fill="white"/>
<path d="M44.5618 10.7788C45.7839 10.7788 46.6131 10.9533 47.0932 11.3461C47.5733 11.7388 47.8352 12.3934 47.8352 13.3098C47.8352 14.0953 47.5297 14.619 46.9623 14.9681C46.3949 15.3172 45.4784 15.4481 44.2563 15.4481H38.757V19.0702L46.133 19.1138C47.3987 19.1138 48.3153 19.2884 48.8827 19.6811C49.4501 20.0739 49.7119 20.7285 49.7119 21.6885C49.7119 22.7795 49.4064 23.5214 48.7517 23.9578C48.0971 24.3941 47.1369 24.6123 45.8275 24.6123H34.7853C33.4323 24.6123 32.4721 24.2632 31.861 23.5214C31.25 22.8231 30.9445 21.5576 30.9445 19.7248V5.36751C30.9445 2.66189 32.2538 1.30908 34.8289 1.30908H45.8275C47.1369 1.30908 48.1407 1.52728 48.7517 1.92003C49.4064 2.31278 49.7119 3.05464 49.7119 4.14562C49.7119 5.14932 49.4501 5.84754 48.8827 6.2403C48.3153 6.63305 47.3987 6.85124 46.133 6.85124H38.7133V10.8224H44.5618V10.7788Z" fill="white"/>
<path d="M68.1302 19.4631C68.1302 20.7723 67.9557 21.776 67.6501 22.5178C67.3446 23.2597 66.9082 23.7834 66.3408 24.0889C65.7734 24.3943 65.0751 24.5252 64.1585 24.5252C62.8055 24.5252 61.8453 24.1761 61.2343 23.4343C60.6233 22.736 60.3177 21.4705 60.3177 19.6377L60.2304 7.1569H57.3499C55.9096 7.1569 54.8621 6.9387 54.1201 6.45867C53.4218 6.02228 53.029 5.19314 53.029 4.05852C53.029 3.3603 53.1599 2.79299 53.4654 2.40024C53.7273 2.00749 54.1638 1.70202 54.7311 1.52746C55.2985 1.3529 56.0405 1.26562 57.0007 1.26562H71.5782C72.8439 1.26562 73.7605 1.48382 74.3279 1.96385C74.8953 2.40024 75.1571 3.18574 75.1571 4.32036C75.1571 5.06222 74.9825 5.62953 74.677 6.06592C74.3279 6.50231 73.8914 6.76415 73.3677 6.9387C72.8439 7.11326 72.102 7.1569 71.2727 7.1569H68.1302V19.4631Z" fill="white"/>
<path d="M92.5279 7.68056C92.5279 7.20053 92.3097 6.80778 91.9169 6.45867C91.5241 6.10956 91.044 5.935 90.5202 5.935C89.4291 5.935 88.5562 6.54595 87.8142 7.76784C87.1159 8.98973 86.7668 10.3862 86.7668 11.9572C86.7668 13.1791 86.985 14.2264 87.4651 15.1865C87.9015 16.1465 88.5562 16.932 89.4291 17.4993C90.302 18.0667 91.3059 18.3285 92.4406 18.3285C93.2699 18.3285 94.0992 18.1539 94.8411 17.8485C95.6267 17.4993 96.2378 17.1502 96.7179 16.7575C97.198 16.3647 97.6781 16.0156 98.2018 15.6665C98.7256 15.3174 99.162 15.1865 99.5548 15.1865C100.035 15.1865 100.471 15.4047 100.864 15.7974C101.213 16.1902 101.388 16.6266 101.388 17.0193C101.388 17.4993 101.257 18.0667 100.951 18.6776C100.69 19.3322 100.209 19.9868 99.5985 20.685C98.9874 21.3832 98.2891 22.0378 97.4599 22.6488C96.6306 23.2597 95.6267 23.7397 94.4047 24.1325C93.1826 24.5252 91.9169 24.7434 90.5639 24.7434C88.8181 24.7434 87.1596 24.4816 85.6756 23.9579C84.148 23.4343 82.8823 22.6488 81.7476 21.6887C80.6564 20.685 79.7835 19.4631 79.1288 17.9794C78.4742 16.4956 78.1686 14.7937 78.1686 12.9609C78.1686 9.29521 79.2598 6.37139 81.4857 4.27672C83.6679 2.1384 86.5485 1.09106 90.1274 1.09106C91.9605 1.09106 93.6191 1.39654 95.1466 2.00748C96.6742 2.61843 97.8963 3.44757 98.8128 4.53855C99.7294 5.62953 100.166 6.80778 100.166 8.11695C100.166 9.60068 99.6858 10.9535 98.6819 12.1754C97.6781 13.3973 96.4124 14.0082 94.7975 14.0082C93.8809 14.0082 93.0953 13.7464 92.3534 13.2664C91.6114 12.7863 91.2622 12.0445 91.2622 11.128C91.2622 10.6917 91.4804 10.0807 91.8733 9.33884C92.3097 8.55334 92.5279 7.98603 92.5279 7.68056Z" fill="white"/>
<path d="M121.028 13.3973C122.163 13.5282 123.254 14.0955 124.171 15.1428C125.131 16.1902 125.611 17.4994 125.611 19.114C125.611 20.685 125.48 21.8196 125.262 22.6051C125.044 23.347 124.651 23.8707 124.127 24.1761C123.603 24.438 122.774 24.6125 121.639 24.6125C120.766 24.6125 120.024 24.4816 119.457 24.2198C118.89 23.9579 118.453 23.6088 118.191 23.1288C117.929 22.6488 117.799 21.9942 117.799 21.2523C117.799 20.2486 117.755 19.4195 117.668 18.7649C117.58 18.1103 117.493 17.543 117.362 17.1502C117.231 16.7575 117.057 16.452 116.795 16.2338C116.533 16.0156 116.315 15.8847 116.053 15.8411C115.835 15.7974 115.485 15.7538 115.093 15.7538H113.303V19.5068C113.303 21.3396 112.954 22.6051 112.256 23.3906C111.557 24.1761 110.51 24.5689 109.157 24.5689C107.847 24.5689 106.887 24.2198 106.233 23.4779C105.622 22.736 105.316 21.5141 105.316 19.7686V5.58589C105.316 4.1458 105.578 3.09847 106.102 2.3566C106.625 1.65838 107.498 1.26562 108.72 1.26562C109.419 1.26562 109.986 1.30926 110.466 1.39654C110.946 1.48382 111.383 1.65838 111.819 1.87657C112.256 2.09477 112.605 2.48752 112.823 3.01119C113.041 3.53486 113.129 4.18944 113.129 4.97494C113.129 5.67317 113.129 6.45867 113.129 7.33145C113.129 8.20424 113.129 8.81518 113.129 9.16429C113.129 9.46977 113.216 9.68796 113.347 9.90616C113.478 10.1244 113.74 10.2553 114.045 10.3862C114.351 10.5171 114.743 10.5607 115.18 10.5607C116.14 10.5607 116.795 10.168 117.144 9.42613C117.493 8.64063 117.624 7.06962 117.624 4.71311C117.624 3.53486 117.929 2.66207 118.584 2.09477C119.239 1.52746 120.243 1.26562 121.639 1.26562C123.167 1.26562 124.171 1.5711 124.694 2.13841C125.218 2.74935 125.48 3.79669 125.48 5.28042C125.48 7.76784 125.044 9.68796 124.171 11.0844C123.211 12.4809 122.207 13.2664 121.028 13.3973Z" fill="white"/>
<path d="M151.144 2.05107C151.798 2.5311 152.147 3.57843 152.147 5.06216V19.463C152.147 21.2959 151.798 22.6051 151.144 23.3906C150.489 24.1761 149.485 24.5252 148.132 24.5252C146.823 24.5252 145.862 24.1761 145.251 23.4342C144.64 22.736 144.335 21.4704 144.335 19.6812L144.291 15.841L144.248 12.3935L137.395 22.5614C137.177 22.8669 137.002 23.0851 136.828 23.3033L136.741 23.3906C136.086 24.1761 135.082 24.5252 133.729 24.5252C132.42 24.5252 131.459 24.1761 130.848 23.4342C130.237 22.736 129.932 21.4704 129.932 19.6812L129.845 5.32399C129.845 3.92754 130.194 2.88021 130.936 2.22562C131.634 1.57104 132.594 1.22192 133.773 1.22192C135.126 1.22192 136.13 1.48376 136.784 1.96379C137.439 2.44382 137.788 3.49115 137.788 4.97488V13.4409L142.022 7.20047L144.815 3.14204L144.902 2.96749C145.251 2.3129 145.688 1.87651 146.255 1.65831C146.779 1.39648 147.477 1.26556 148.219 1.26556C149.441 1.3092 150.445 1.57104 151.144 2.05107Z" fill="white"/>
<path d="M170.391 10.7788C171.613 10.7788 172.442 10.9533 172.922 11.3461C173.403 11.7388 173.664 12.3934 173.664 13.3098C173.664 14.0953 173.359 14.619 172.792 14.9681C172.224 15.3172 171.308 15.4481 170.086 15.4481H164.586V19.0702L171.962 19.1138C173.228 19.1138 174.145 19.2884 174.712 19.6811C175.279 20.0739 175.541 20.7285 175.541 21.6885C175.541 22.7795 175.236 23.5214 174.581 23.9578C173.926 24.3941 172.966 24.6123 171.657 24.6123H160.615C159.262 24.6123 158.301 24.2632 157.69 23.5214C157.079 22.8231 156.774 21.5576 156.774 19.7248V5.36751C156.774 2.66189 158.083 1.30908 160.658 1.30908H171.657C172.966 1.30908 173.97 1.52728 174.581 1.92003C175.236 2.31278 175.541 3.05464 175.541 4.14562C175.541 5.14932 175.279 5.84754 174.712 6.2403C174.145 6.63305 173.228 6.85124 171.962 6.85124H164.543V10.8224H170.391V10.7788Z" fill="white"/>
<path d="M186.147 12.7861C186.976 12.7861 187.587 12.8734 188.067 13.048C188.547 13.2225 188.897 13.4844 189.071 13.8771C189.289 14.2699 189.377 14.7935 189.377 15.4481C189.377 16.2773 189.071 16.8882 188.547 17.1937C187.98 17.5428 187.064 17.6737 185.841 17.6737H181.171C179.338 17.6737 178.422 16.8882 178.422 15.3172C178.422 13.6589 179.426 12.7861 181.433 12.7861H186.147Z" fill="white"/>
<path d="M16.4543 47.6102C17.589 47.7411 18.6802 48.3084 19.5967 49.3557C20.5569 50.4031 21.037 51.7122 21.037 53.3269C21.037 54.8979 20.9061 56.0325 20.6878 56.818C20.4696 57.5599 20.0768 58.0835 19.5531 58.389C19.0293 58.6508 18.2001 58.8254 17.0653 58.8254C16.1924 58.8254 15.4504 58.6945 14.883 58.4326C14.3156 58.1708 13.8792 57.8217 13.6173 57.3417C13.3554 56.8616 13.2245 56.2071 13.2245 55.4652C13.2245 54.4615 13.1809 53.6324 13.0936 52.9778C13.0063 52.3232 12.919 51.7559 12.7881 51.3631C12.6571 50.9704 12.4825 50.6649 12.2207 50.4467C11.9588 50.2285 11.7406 50.0976 11.4787 50.054C11.2605 50.0103 10.9113 49.9667 10.5185 49.9667H8.72905V53.7196C8.72905 55.5525 8.37988 56.818 7.68156 57.6035C6.98324 58.389 5.93575 58.7818 4.58275 58.7818C3.27339 58.7818 2.31319 58.4327 1.65851 57.6908C1.04748 56.9489 0.741964 55.727 0.741964 53.9815V39.7988C0.741964 38.3587 1.00384 37.3114 1.52758 36.5695C2.05132 35.8713 2.92423 35.4785 4.14629 35.4785C4.84462 35.4785 5.41201 35.5222 5.8921 35.6094C6.3722 35.6967 6.80866 35.8713 7.24511 36.0895C7.68156 36.3077 8.03072 36.7004 8.24895 37.2241C8.46717 37.7477 8.55447 38.4023 8.55447 39.1878C8.55447 39.8861 8.55447 40.6716 8.55447 41.5443C8.55447 42.4171 8.55447 43.0281 8.55447 43.3772C8.55447 43.6827 8.64176 43.9008 8.77269 44.119C8.90363 44.3372 9.1655 44.4682 9.47102 44.5991C9.77653 44.73 10.1693 44.7736 10.6058 44.7736C11.566 44.7736 12.2207 44.3809 12.5698 43.639C12.919 42.8535 13.0499 41.2825 13.0499 38.926C13.0499 37.7477 13.3554 36.875 14.0101 36.3077C14.6648 35.7403 15.6686 35.4785 17.0653 35.4785C18.5929 35.4785 19.5967 35.784 20.1205 36.3513C20.6442 36.9622 20.9061 38.0096 20.9061 39.4933C20.9061 41.9807 20.4696 43.9009 19.5967 45.2973C18.6365 46.7374 17.6327 47.4793 16.4543 47.6102Z" fill="white"/>
<path d="M42.6414 57.6472C40.852 58.5636 38.8443 59 36.6184 59C34.3925 59 32.3848 58.5636 30.5953 57.6472C28.8059 56.7744 27.4092 55.4216 26.3181 53.6324C25.2706 51.8432 24.7032 49.7485 24.7032 47.3048C24.7032 43.6391 25.7943 40.7153 28.0202 38.5769C30.2462 36.395 33.0831 35.3477 36.6184 35.3477C40.11 35.3477 42.9906 36.4386 45.2165 38.5769C47.4424 40.7589 48.5335 43.6391 48.5335 47.3048C48.5335 49.7485 48.0098 51.8432 46.9186 53.6324C45.8712 55.4216 44.4309 56.7308 42.6414 57.6472ZM36.6184 54.0252C37.404 54.0252 38.0587 53.6761 38.626 53.0215C39.1934 52.3233 39.5862 51.4941 39.8045 50.4904C40.0227 49.4867 40.1536 48.4394 40.1536 47.3048C40.1536 46.1701 40.0227 45.0355 39.7608 44.0318C39.499 42.9845 39.1061 42.1117 38.5388 41.4135C37.9714 40.6716 37.3167 40.3225 36.5747 40.3225C35.8328 40.3225 35.2217 40.6716 34.6543 41.4135C34.1306 42.1554 33.6941 43.0281 33.4323 44.0755C33.1704 45.1228 33.0395 46.2138 33.0395 47.3484C33.0395 48.483 33.1704 49.5304 33.4323 50.5341C33.6941 51.5377 34.0869 52.3669 34.6543 53.0651C35.2654 53.6761 35.92 54.0252 36.6184 54.0252Z" fill="white"/>
<path d="M61.4525 41.0644C60.3177 41.0644 59.5321 41.3699 59.183 41.9372C58.8338 42.5482 58.6592 43.5519 58.6592 44.9483C58.6592 45.6465 58.6592 47.2175 58.6156 49.6613C58.6156 52.1924 58.6156 54.0689 58.6156 55.2471C58.6156 56.469 58.3537 57.3418 57.7863 57.9091C57.1753 58.4328 56.2151 58.7383 54.7748 58.7383C53.5091 58.7383 52.5925 58.4328 51.9815 57.8218C51.3705 57.1672 50.934 56.0763 50.6721 54.418C50.4103 52.7597 50.2793 50.2723 50.2793 46.9121C50.2793 45.472 50.4539 44.1628 50.7594 42.9845C51.1086 41.8063 51.545 40.8026 52.1124 39.9735C52.6798 39.1443 53.3781 38.4024 54.0765 37.7479C54.8184 37.1369 55.6041 36.6569 56.4333 36.3078C57.2626 35.9587 58.0918 35.6532 58.9211 35.4786C59.7503 35.3041 60.536 35.2168 61.3216 35.2168C62.2818 35.2168 63.2856 35.3477 64.2458 35.5659C65.2496 35.8277 66.2535 36.2205 67.2573 36.8314C68.2612 37.4424 69.1777 38.1406 69.9633 38.9698C70.7489 39.8425 71.36 40.9335 71.8401 42.2863C72.3202 43.6828 72.582 45.2101 72.582 46.8684C72.582 50.2286 72.4511 52.7161 72.1892 54.3743C71.9274 55.989 71.4473 57.1236 70.7926 57.7782C70.1379 58.3891 69.1341 58.6946 67.7811 58.6946C66.5154 58.6946 65.5988 58.4328 65.0751 57.8655C64.5513 57.2982 64.2894 56.4254 64.2894 55.2035C64.2894 53.8943 64.2894 52.0178 64.2458 49.6177C64.2458 47.1739 64.2458 45.6029 64.2458 44.9483C64.2458 44.381 64.2458 43.901 64.2022 43.5082C64.1585 43.1591 64.0712 42.81 63.9839 42.4609C63.8966 42.1118 63.7657 41.8063 63.5475 41.6317C63.3293 41.4572 63.0674 41.2826 62.7182 41.1953C62.3691 41.1517 61.9326 41.0644 61.4525 41.0644Z" fill="white"/>
<path d="M78.5615 53.3705C78.5615 51.8867 79.0416 50.6649 79.9581 49.6612C80.8747 48.7011 81.8785 48.1774 82.9696 48.0901C81.5293 47.6974 80.5255 47.0428 79.8708 46.17C79.2161 45.2972 78.867 44.119 78.867 42.548C78.867 40.497 79.7399 38.8387 81.442 37.5295C83.1442 36.2203 85.4138 35.6094 88.2071 35.6094H95.3212C96.456 35.6094 97.4162 35.9585 98.1145 36.6567C98.8565 37.3549 99.2057 38.315 99.2057 39.6678V54.0251C99.2057 55.8579 98.9001 57.1234 98.2455 57.8217C97.6344 58.5199 96.6742 58.869 95.3212 58.869C92.6589 58.869 91.3495 57.1671 91.3495 53.7632V50.4467L89.4728 50.403C88.6872 50.403 88.1198 50.5339 87.6833 50.7521C87.2469 50.9703 86.8977 51.494 86.6358 52.2359C86.374 52.9777 86.243 54.0687 86.243 55.4651C86.243 56.5998 85.9375 57.4289 85.2828 57.9962C84.6718 58.5199 83.7116 58.8254 82.3586 58.8254C81.3984 58.8254 80.6564 58.6944 80.1327 58.4326C79.6089 58.1708 79.2161 57.6035 78.9106 56.818C78.6924 55.9888 78.5615 54.8542 78.5615 53.3705ZM86.1994 42.2862C86.1994 43.4208 86.6358 44.2063 87.4651 44.6427C88.338 45.0791 89.6473 45.3409 91.3932 45.3409V39.4496C89.5164 39.4496 88.1634 39.6678 87.3778 40.0606C86.5922 40.4533 86.1994 41.2388 86.1994 42.2862Z" fill="white"/>
<path d="M117.362 41.8935C117.362 41.4134 117.144 41.0207 116.751 40.6716C116.358 40.3224 115.878 40.1479 115.354 40.1479C114.263 40.1479 113.39 40.7588 112.648 41.9807C111.95 43.2026 111.601 44.5991 111.601 46.1701C111.601 47.392 111.819 48.4393 112.299 49.3994C112.736 50.3594 113.39 51.1449 114.263 51.7122C115.136 52.2796 116.14 52.5414 117.275 52.5414C118.104 52.5414 118.933 52.3668 119.675 52.0614C120.461 51.7122 121.072 51.3631 121.552 50.9704C122.032 50.5776 122.512 50.2285 123.036 49.8794C123.56 49.5303 123.996 49.3994 124.389 49.3994C124.869 49.3994 125.306 49.6176 125.698 50.0103C126.047 50.4031 126.222 50.8395 126.222 51.2322C126.222 51.7122 126.091 52.2796 125.786 52.8905C125.524 53.5451 125.044 54.1997 124.433 54.8979C123.822 55.5961 123.123 56.2507 122.294 56.8617C121.465 57.4726 120.461 57.9526 119.239 58.3454C118.017 58.7381 116.751 58.9563 115.398 58.9563C113.652 58.9563 111.994 58.6945 110.51 58.1708C108.982 57.6472 107.716 56.8617 106.582 55.9016C105.491 54.8979 104.618 53.676 103.963 52.1923C103.308 50.7085 103.003 49.0066 103.003 47.1738C103.003 43.5081 104.094 40.5843 106.32 38.4896C108.502 36.3513 111.383 35.304 114.962 35.304C116.795 35.304 118.453 35.6094 119.981 36.2204C121.508 36.8313 122.73 37.6605 123.647 38.7514C124.564 39.8424 125 41.0207 125 42.3298C125 43.8136 124.52 45.1664 123.516 46.3883C122.512 47.6102 121.247 48.2211 119.632 48.2211C118.715 48.2211 117.929 47.9593 117.188 47.4793C116.446 46.9992 116.096 46.2574 116.096 45.3409C116.096 44.9046 116.315 44.2936 116.707 43.5517C117.144 42.7662 117.362 42.1989 117.362 41.8935Z" fill="white"/>
<path d="M145.862 47.6102C146.997 47.7411 148.088 48.3084 149.005 49.3557C149.965 50.4031 150.445 51.7122 150.445 53.3269C150.445 54.8979 150.314 56.0325 150.096 56.818C149.878 57.5599 149.485 58.0835 148.961 58.389C148.438 58.6508 147.608 58.8254 146.473 58.8254C145.601 58.8254 144.859 58.6945 144.291 58.4326C143.724 58.1708 143.287 57.8217 143.026 57.3417C142.764 56.8616 142.633 56.2071 142.633 55.4652C142.633 54.4615 142.589 53.6324 142.502 52.9778C142.414 52.3232 142.327 51.7559 142.196 51.3631C142.065 50.9704 141.891 50.6649 141.629 50.4467C141.367 50.2285 141.149 50.0976 140.887 50.054C140.669 50.0103 140.319 49.9667 139.927 49.9667H138.137V53.7196C138.137 55.5525 137.788 56.818 137.09 57.6035C136.391 58.389 135.344 58.7818 133.991 58.7818C132.682 58.7818 131.721 58.4327 131.067 57.6908C130.456 56.9489 130.15 55.727 130.15 53.9815V39.7988C130.15 38.3587 130.412 37.3114 130.936 36.5695C131.46 35.8276 132.332 35.4785 133.554 35.4785C134.253 35.4785 134.82 35.5222 135.3 35.6094C135.78 35.6967 136.217 35.8713 136.653 36.0895C137.09 36.3077 137.439 36.7004 137.657 37.2241C137.875 37.7477 137.963 38.4023 137.963 39.1878C137.963 39.8861 137.963 40.6716 137.963 41.5443C137.963 42.4171 137.963 43.0281 137.963 43.3772C137.963 43.6827 138.05 43.9008 138.181 44.119C138.312 44.3372 138.574 44.4682 138.879 44.5991C139.185 44.73 139.578 44.7736 140.014 44.7736C140.974 44.7736 141.629 44.3809 141.978 43.639C142.327 42.8535 142.458 41.2825 142.458 38.926C142.458 37.7477 142.764 36.875 143.418 36.3077C144.073 35.7403 145.077 35.4785 146.473 35.4785C148.001 35.4785 149.005 35.784 149.529 36.3513C150.052 36.9622 150.314 38.0096 150.314 39.4933C150.314 41.9807 149.878 43.9009 149.005 45.2973C148.088 46.7374 147.041 47.4793 145.862 47.6102Z" fill="white"/>
<path d="M175.978 36.3077C176.632 36.7877 176.981 37.835 176.981 39.3187V53.7196C176.981 55.5525 176.632 56.8617 175.978 57.6472C175.323 58.4327 174.319 58.7818 172.966 58.7818C171.657 58.7818 170.697 58.4327 170.086 57.6908C169.474 56.9926 169.169 55.727 169.169 53.9378L169.125 50.0976L169.082 46.6501L162.229 56.818C162.011 57.1235 161.837 57.3417 161.662 57.5599L161.575 57.6472C160.92 58.4327 159.916 58.7818 158.563 58.7818C157.254 58.7818 156.294 58.4327 155.683 57.6908C155.072 56.9926 154.766 55.727 154.766 53.9378L154.679 39.5806C154.679 38.1841 155.028 37.1368 155.77 36.4822C156.468 35.8276 157.428 35.4785 158.607 35.4785C159.96 35.4785 160.964 35.7403 161.618 36.2204C162.273 36.7004 162.622 37.7477 162.622 39.2315V47.6974L166.856 41.4571L169.649 37.3986L169.736 37.2241C170.086 36.5695 170.522 36.1331 171.089 35.9149C171.613 35.6531 172.311 35.5222 173.053 35.5222C174.275 35.5658 175.279 35.784 175.978 36.3077Z" fill="white"/>
<path d="M221.631 59C237.54 59 250.436 46.105 250.436 30.1983C250.436 14.2915 237.54 1.39648 221.631 1.39648C205.722 1.39648 192.825 14.2915 192.825 30.1983C192.825 46.105 205.722 59 221.631 59Z" fill="white"/>
<path d="M207.795 36.4822C207.795 38.3151 207.446 39.6242 206.791 40.4097C206.093 41.1952 205.089 41.588 203.649 41.588C202.208 41.588 201.205 41.2389 200.55 40.497C199.895 39.7988 199.546 38.5333 199.546 36.7004V22.3868C199.546 20.9904 199.939 19.9867 200.681 19.3321C201.423 18.6775 202.427 18.3284 203.649 18.3284H209.715C211.199 18.3284 212.552 18.5466 213.774 18.9393C215.04 19.3321 216.088 19.8994 217.004 20.5976C217.921 21.2958 218.619 22.2122 219.143 23.3032C219.667 24.3942 219.928 25.5725 219.928 26.8816C219.928 28.4963 219.448 29.8927 218.532 31.071C217.615 32.2492 216.393 33.1656 214.866 33.733C213.338 34.3439 211.636 34.6057 209.715 34.6057H207.795V36.4822ZM212.072 26.358C212.072 25.5288 211.985 24.8742 211.854 24.3506C211.679 23.8705 211.418 23.4778 211.025 23.2596C210.632 22.9977 210.196 22.8668 209.715 22.7796C209.235 22.6923 208.624 22.6486 207.795 22.6486V30.1109C208.45 30.1109 208.973 30.0673 209.497 29.9364C209.977 29.8054 210.414 29.6309 210.85 29.3691C211.243 29.1072 211.549 28.7145 211.767 28.1908C211.941 27.7108 212.072 27.0998 212.072 26.358Z" fill="#645D75"/>
<path d="M242.929 19.2447C243.584 19.8993 243.933 20.903 243.933 22.3867V23.8268C243.933 24.4814 243.846 26.0088 243.715 28.4526C243.541 31.0273 243.41 32.5983 243.322 33.1656C243.104 34.562 242.755 35.7403 242.318 36.7876C241.882 37.7913 241.227 38.6641 240.398 39.4496C239.569 40.2351 238.521 40.8461 237.256 41.1952C235.99 41.5879 234.462 41.7625 232.716 41.7625C231.32 41.7625 230.01 41.5879 228.788 41.2388C227.566 40.8897 226.65 40.4969 225.951 39.9733C225.253 39.4496 224.686 38.9259 224.337 38.4459C223.944 37.9659 223.726 37.5295 223.726 37.1367C223.726 36.7876 223.856 36.4385 224.118 36.133C224.424 35.8276 224.817 35.6967 225.253 35.6967C225.602 35.6967 225.995 35.7839 226.432 35.9585C226.912 36.133 227.348 36.3512 227.741 36.5694C228.177 36.7876 228.701 37.0058 229.269 37.1804C229.836 37.3549 230.403 37.4422 230.971 37.4422C232.411 37.4422 233.415 37.1367 233.982 36.5258C234.55 35.9585 234.855 35.0857 234.855 33.9947L234.899 33.9074V33.4711V33.0347C234.419 33.0783 233.895 33.1219 233.415 33.1219C229.792 33.1219 227.174 32.3364 225.471 30.8091C223.813 29.2817 222.94 26.9688 222.94 23.8268V22.3867C222.94 21.1648 223.289 20.2048 224.031 19.4629C224.729 18.6774 225.646 18.3283 226.737 18.3283C228.09 18.3283 229.094 18.5901 229.749 19.0702C230.447 19.5502 230.796 20.5975 230.796 22.0813V24.4378C230.84 25.1796 230.927 25.7469 231.145 26.1833C231.363 26.6197 231.669 26.9252 232.018 27.0561C232.367 27.2307 232.847 27.318 233.415 27.318C233.982 27.318 234.462 27.2307 234.811 27.0998C235.161 26.9688 235.422 26.7506 235.597 26.4452C235.772 26.1397 235.903 25.8779 235.946 25.5724C236.034 25.2669 236.034 24.8742 236.034 24.4378V21.994C236.034 21.2085 236.121 20.5975 236.295 20.0739C236.514 19.5502 236.775 19.1574 237.168 18.9393C237.561 18.6774 237.998 18.5029 238.39 18.4156C238.827 18.3283 239.351 18.2847 239.918 18.2847C241.271 18.2847 242.275 18.5901 242.929 19.2447Z" fill="#645D75"/>
</g>
<defs>
<clipPath id="clip0">
<rect width="250" height="59" fill="white"/>
</clipPath>
</defs>
</svg>
