<svg width="298" height="70" viewBox="0 0 298 70" fill="none" xmlns="http://www.w3.org/2000/svg">
<g clip-path="url(#clip0)">
<path d="M31.111 23.3506C31.8914 23.8166 32.2556 24.6967 32.2556 25.9911C32.2556 27.182 31.9434 28.0104 31.2671 28.4763C30.6428 28.9423 29.5503 29.1494 28.0416 29.1494H4.68226C3.12151 29.1494 1.92493 28.8905 1.14455 28.4246C0.364176 27.9586 0 27.0784 0 25.784C0 24.5932 0.312151 23.7648 0.988478 23.2988C1.50873 22.9364 2.23708 22.7293 3.27758 22.6775C2.96543 20.7101 2.80936 17.7589 2.80936 13.8757C2.80936 12.1672 3.01746 10.6139 3.38163 9.21598C3.79784 7.81805 4.37011 6.62722 4.99441 5.64349C5.72277 4.65976 6.50314 3.77959 7.33555 3.00296C8.21997 2.27811 9.15643 1.70858 10.1449 1.29438C11.1334 0.880178 12.1219 0.517752 13.1103 0.310651C14.0988 0.10355 15.0873 0 16.0237 0C17.1683 0 18.3129 0.155325 19.5094 0.414201C20.654 0.724852 21.8506 1.19083 23.0471 1.91568C24.2437 2.64053 25.3362 3.46894 26.2727 4.45266C27.1571 5.48817 27.8855 6.78255 28.4578 8.38758C29.0821 10.0444 29.3942 11.8565 29.3942 13.824C29.3942 17.7589 29.2381 20.7101 28.926 22.6775C29.8104 22.7811 30.5908 23.0399 31.111 23.3506ZM12.7982 11.4941C12.7982 12.2707 12.7462 14.1346 12.6941 17.0858V22.6257H19.4574C19.4574 21.2278 19.4574 19.3639 19.4054 17.0858V11.5459C19.4054 10.8728 19.4054 10.3033 19.3534 9.83728C19.3013 9.42308 19.1973 9.00888 19.0932 8.59468C18.9892 8.18047 18.8331 7.81805 18.573 7.61095C18.3129 7.40385 18.0007 7.19675 17.6365 7.0932C17.2203 6.93787 16.7001 6.8861 16.0758 6.8861C14.7231 6.8861 13.7867 7.24852 13.3705 7.9216C13.0063 8.59468 12.7982 9.7855 12.7982 11.4941Z" fill="#8C6EB6"/>
<path d="M53.1177 12.7885C54.5744 12.7885 55.5629 12.9956 56.1351 13.4615C56.7074 13.9275 57.0196 14.7041 57.0196 15.7914C57.0196 16.7234 56.6554 17.3447 55.9791 17.7589C55.3027 18.1731 54.2102 18.3284 52.7535 18.3284H46.1983V22.6257L54.9906 22.6775C56.4993 22.6775 57.5918 22.8846 58.2682 23.3506C58.9445 23.8166 59.2566 24.5932 59.2566 25.7323C59.2566 27.0266 58.8925 27.9068 58.1121 28.4246C57.3317 28.9423 56.1872 29.2012 54.6264 29.2012H41.464C39.8513 29.2012 38.7067 28.787 37.9784 27.9068C37.25 27.0784 36.8858 25.5769 36.8858 23.4024V6.36834C36.8858 3.15828 38.4466 1.55325 41.5161 1.55325H54.6264C56.1872 1.55325 57.3837 1.81213 58.1121 2.27811C58.8925 2.74408 59.2566 3.62426 59.2566 4.91864C59.2566 6.10947 58.9445 6.93787 58.2682 7.40385C57.5918 7.86982 56.4993 8.1287 54.9906 8.1287H46.1463V12.8402H53.1177V12.7885Z" fill="#8C6EB6"/>
<path d="M81.2112 23.0917C81.2112 24.645 81.0031 25.8358 80.639 26.716C80.2748 27.5962 79.7545 28.2175 79.0782 28.5799C78.4019 28.9423 77.5695 29.0977 76.477 29.0977C74.8642 29.0977 73.7196 28.6834 72.9913 27.8033C72.2629 26.9749 71.8987 25.4734 71.8987 23.2988L71.7947 8.49114H68.361C66.6442 8.49114 65.3956 8.23226 64.5112 7.66274C63.6788 7.14499 63.2105 6.16126 63.2105 4.81511C63.2105 3.9867 63.3666 3.31363 63.7308 2.84765C64.043 2.38167 64.5632 2.01925 65.2395 1.81215C65.9159 1.60505 66.8003 1.5015 67.9448 1.5015H85.3212C86.83 1.5015 87.9225 1.76037 88.5988 2.3299C89.2751 2.84765 89.5873 3.7796 89.5873 5.12576C89.5873 6.00593 89.3792 6.67901 89.015 7.19676C88.5988 7.71451 88.0786 8.02516 87.4543 8.23226C86.83 8.43937 85.9455 8.49114 84.9571 8.49114H81.2112V23.0917Z" fill="#8C6EB6"/>
<path d="M110.293 9.11242C110.293 8.54289 110.033 8.07692 109.565 7.66272C109.097 7.24851 108.524 7.04141 107.9 7.04141C106.6 7.04141 105.559 7.76627 104.675 9.21597C103.842 10.6657 103.426 12.3225 103.426 14.1864C103.426 15.6361 103.686 16.8787 104.258 18.0177C104.779 19.1568 105.559 20.0887 106.6 20.7618C107.64 21.4349 108.837 21.7456 110.189 21.7456C111.178 21.7456 112.166 21.5385 113.051 21.176C113.987 20.7618 114.715 20.3476 115.288 19.8817C115.86 19.4157 116.432 19.0015 117.057 18.5873C117.681 18.1731 118.201 18.0177 118.669 18.0177C119.242 18.0177 119.762 18.2766 120.23 18.7426C120.646 19.2086 120.854 19.7263 120.854 20.1923C120.854 20.7618 120.698 21.4349 120.334 22.1598C120.022 22.9364 119.45 23.713 118.721 24.5414C117.993 25.3698 117.161 26.1464 116.172 26.8713C115.184 27.5961 113.987 28.1657 112.53 28.6316C111.074 29.0976 109.565 29.3565 107.952 29.3565C105.871 29.3565 103.894 29.0459 102.125 28.4245C100.304 27.8032 98.7957 26.8713 97.4431 25.7322C96.1425 24.5414 95.1019 23.0917 94.3216 21.3314C93.5412 19.571 93.177 17.5518 93.177 15.3772C93.177 11.0281 94.4776 7.55917 97.1309 5.07396C99.7322 2.53698 103.166 1.29437 107.432 1.29437C109.617 1.29437 111.594 1.6568 113.415 2.38165C115.236 3.1065 116.692 4.09023 117.785 5.38461C118.877 6.67899 119.398 8.07692 119.398 9.63017C119.398 11.3905 118.825 12.9956 117.629 14.4453C116.432 15.895 114.924 16.6198 112.999 16.6198C111.906 16.6198 110.97 16.3092 110.085 15.7396C109.201 15.1701 108.785 14.2899 108.785 13.2027C108.785 12.6849 109.045 11.9601 109.513 11.0799C110.033 10.1479 110.293 9.47485 110.293 9.11242Z" fill="#8C6EB6"/>
<path d="M144.266 15.895C145.618 16.0503 146.919 16.7234 148.012 17.966C149.156 19.2086 149.728 20.7619 149.728 22.6775C149.728 24.5414 149.572 25.8876 149.312 26.8195C149.052 27.6997 148.584 28.321 147.96 28.6835C147.335 28.9941 146.347 29.2012 144.994 29.2012C143.954 29.2012 143.069 29.0459 142.393 28.7352C141.717 28.4246 141.196 28.0104 140.884 27.4408C140.572 26.8713 140.416 26.0947 140.416 25.2145C140.416 24.0237 140.364 23.04 140.26 22.2633C140.156 21.4867 140.052 20.8136 139.896 20.3476C139.74 19.8817 139.531 19.5192 139.219 19.2604C138.907 19.0015 138.647 18.8462 138.335 18.7944C138.075 18.7426 137.659 18.6908 137.19 18.6908H135.057V23.1435C135.057 25.3181 134.641 26.8195 133.809 27.7515C132.976 28.6834 131.728 29.1494 130.115 29.1494C128.554 29.1494 127.41 28.7352 126.629 27.855C125.901 26.9749 125.537 25.5252 125.537 23.4542V6.62723C125.537 4.91866 125.849 3.67605 126.473 2.79587C127.097 1.96747 128.138 1.5015 129.595 1.5015C130.427 1.5015 131.103 1.55327 131.676 1.65682C132.248 1.76037 132.768 1.96747 133.288 2.22635C133.809 2.48522 134.225 2.9512 134.485 3.5725C134.745 4.1938 134.849 4.97043 134.849 5.90238C134.849 6.73079 134.849 7.66274 134.849 8.69824C134.849 9.73374 134.849 10.4586 134.849 10.8728C134.849 11.2352 134.953 11.4941 135.109 11.753C135.265 12.0119 135.578 12.1672 135.942 12.3225C136.306 12.4778 136.774 12.5296 137.294 12.5296C138.439 12.5296 139.219 12.0636 139.635 11.1834C140.052 10.2515 140.208 8.38759 140.208 5.59173C140.208 4.1938 140.572 3.1583 141.352 2.48522C142.133 1.81215 143.329 1.5015 144.994 1.5015C146.815 1.5015 148.012 1.86392 148.636 2.537C149.26 3.26185 149.572 4.50445 149.572 6.26481C149.572 9.21599 149.052 11.4941 148.012 13.1509C146.867 14.8077 145.67 15.7397 144.266 15.895Z" fill="#8C6EB6"/>
<path d="M180.163 2.43343C180.943 3.00296 181.36 4.24557 181.36 6.00592V23.0917C181.36 25.2663 180.943 26.8195 180.163 27.7515C179.383 28.6834 178.186 29.0976 176.573 29.0976C175.013 29.0976 173.868 28.6834 173.14 27.8033C172.411 26.9749 172.047 25.4734 172.047 23.3506L171.995 18.7944L171.943 14.7041L163.775 26.7678C163.515 27.1302 163.307 27.3891 163.099 27.6479L162.995 27.7515C162.214 28.6834 161.018 29.0976 159.405 29.0976C157.844 29.0976 156.7 28.6834 155.971 27.8033C155.243 26.9749 154.879 25.4734 154.879 23.3506L154.775 6.31657C154.775 4.65977 155.191 3.41716 156.075 2.64054C156.908 1.86391 158.052 1.44971 159.457 1.44971C161.07 1.44971 162.266 1.76036 163.047 2.32988C163.827 2.89941 164.243 4.14201 164.243 5.90237V15.9467L169.29 8.5429L172.619 3.72781L172.723 3.52071C173.14 2.74409 173.66 2.22633 174.336 1.96746C174.961 1.65681 175.793 1.50148 176.677 1.50148C178.134 1.55326 179.331 1.86391 180.163 2.43343Z" fill="#8C6EB6"/>
<path d="M203.106 12.7885C204.563 12.7885 205.551 12.9956 206.124 13.4615C206.696 13.9275 207.008 14.7041 207.008 15.7914C207.008 16.7234 206.644 17.3447 205.968 17.7589C205.291 18.1731 204.199 18.3284 202.742 18.3284H196.187V22.6257L204.979 22.6775C206.488 22.6775 207.58 22.8846 208.257 23.3506C208.933 23.8166 209.245 24.5932 209.245 25.7323C209.245 27.0266 208.881 27.9068 208.101 28.4246C207.32 28.9423 206.176 29.2012 204.615 29.2012H191.453C189.84 29.2012 188.695 28.787 187.967 27.9068C187.238 27.0784 186.874 25.5769 186.874 23.4024V6.36834C186.874 3.15828 188.435 1.55325 191.505 1.55325H204.615C206.176 1.55325 207.372 1.81213 208.101 2.27811C208.881 2.74408 209.245 3.62426 209.245 4.91864C209.245 6.10947 208.933 6.93787 208.257 7.40385C207.58 7.86982 206.488 8.1287 204.979 8.1287H196.135V12.8402H203.106V12.7885Z" fill="#8C6EB6"/>
<path d="M221.887 15.1701C222.876 15.1701 223.604 15.2737 224.176 15.4808C224.749 15.6879 225.165 15.9985 225.373 16.4645C225.633 16.9305 225.737 17.5518 225.737 18.3284C225.737 19.3121 225.373 20.037 224.749 20.3994C224.072 20.8136 222.98 20.969 221.523 20.969H215.956C213.771 20.969 212.679 20.037 212.679 18.1731C212.679 16.2056 213.875 15.1701 216.269 15.1701H221.887Z" fill="#8C6EB6"/>
<path d="M19.6135 56.4867C20.9661 56.642 22.2668 57.3151 23.3593 58.5577C24.5038 59.8003 25.0761 61.3535 25.0761 63.2692C25.0761 65.1331 24.92 66.4793 24.6599 67.4112C24.3998 68.2914 23.9316 68.9127 23.3073 69.2751C22.683 69.5858 21.6945 69.7929 20.3418 69.7929C19.3013 69.7929 18.4169 69.6376 17.7406 69.3269C17.0642 69.0163 16.544 68.6021 16.2318 68.0325C15.9197 67.463 15.7636 66.6864 15.7636 65.8062C15.7636 64.6154 15.7116 63.6317 15.6075 62.855C15.5035 62.0784 15.3994 61.4053 15.2434 60.9393C15.0873 60.4734 14.8792 60.1109 14.567 59.8521C14.2549 59.5932 13.9948 59.4379 13.6826 59.3861C13.4225 59.3343 13.0063 59.2825 12.5381 59.2825H10.405V63.7352C10.405 65.9098 9.98882 67.4112 9.15642 68.3432C8.32402 69.2751 7.07541 69.7411 5.46263 69.7411C3.90188 69.7411 2.75733 69.3269 1.97695 68.4467C1.2486 67.5666 0.884422 66.1169 0.884422 64.0459V47.2189C0.884422 45.5104 1.19657 44.2678 1.82087 43.3876C2.44518 42.5592 3.48568 42.0932 4.94238 42.0932C5.77479 42.0932 6.45111 42.145 7.02339 42.2485C7.59567 42.3521 8.11592 42.5592 8.63617 42.818C9.15642 43.0769 9.57262 43.5429 9.83275 44.1642C10.0929 44.7855 10.1969 45.5621 10.1969 46.4941C10.1969 47.3225 10.1969 48.2544 10.1969 49.2899C10.1969 50.3254 10.1969 51.0503 10.1969 51.4645C10.1969 51.8269 10.301 52.0858 10.457 52.3447C10.6131 52.6036 10.9253 52.7589 11.2895 52.9142C11.6536 53.0695 12.1219 53.1213 12.6421 53.1213C13.7867 53.1213 14.567 52.6553 14.9832 51.7752C15.3994 50.8432 15.5555 48.9793 15.5555 46.1834C15.5555 44.7855 15.9197 43.75 16.7001 43.0769C17.4804 42.4038 18.677 42.0932 20.3418 42.0932C22.1627 42.0932 23.3593 42.4556 23.9836 43.1287C24.6079 43.8536 24.92 45.0962 24.92 46.8565C24.92 49.8077 24.3998 52.0858 23.3593 53.7426C22.2147 55.4512 21.0182 56.3314 19.6135 56.4867Z" fill="#FFC300"/>
<path d="M50.8286 68.395C48.6955 69.4823 46.3024 70 43.6491 70C40.9958 70 38.6027 69.4823 36.4696 68.395C34.3366 67.3595 32.6718 65.7544 31.3712 63.6317C30.1226 61.5089 29.4462 59.0237 29.4462 56.1243C29.4462 51.7751 30.7469 48.3062 33.4001 45.7692C36.0534 43.1805 39.4351 41.9379 43.6491 41.9379C47.8111 41.9379 51.2448 43.2322 53.898 45.7692C56.5513 48.358 57.852 51.7751 57.852 56.1243C57.852 59.0237 57.2277 61.5089 55.927 63.6317C54.6784 65.7544 52.9616 67.3077 50.8286 68.395ZM43.6491 64.0976C44.5855 64.0976 45.3659 63.6834 46.0422 62.9068C46.7186 62.0784 47.1868 61.0947 47.4469 59.9038C47.707 58.713 47.8631 57.4704 47.8631 56.1243C47.8631 54.7781 47.7071 53.432 47.3949 52.2411C47.0827 50.9985 46.6145 49.963 45.9382 49.1346C45.2619 48.2544 44.4815 47.8402 43.5971 47.8402C42.7126 47.8402 41.9843 48.2544 41.308 49.1346C40.6837 50.0148 40.1634 51.0503 39.8513 52.2929C39.5391 53.5355 39.383 54.8299 39.383 56.176C39.383 57.5222 39.5391 58.7648 39.8513 59.9556C40.1634 61.1464 40.6316 62.1302 41.308 62.9586C42.0363 63.6834 42.8167 64.0976 43.6491 64.0976Z" fill="#FFC300"/>
<path d="M73.2514 48.7204C71.8987 48.7204 70.9623 49.0828 70.5461 49.7559C70.1299 50.4808 69.9218 51.6716 69.9218 53.3284C69.9218 54.1568 69.9218 56.0207 69.8698 58.9201C69.8698 61.9231 69.8698 64.1494 69.8698 65.5473C69.8698 66.997 69.5576 68.0325 68.8813 68.7056C68.1529 69.3269 67.0084 69.6894 65.2915 69.6894C63.7828 69.6894 62.6903 69.3269 61.9619 68.6021C61.2336 67.8254 60.7133 66.5311 60.4012 64.5636C60.089 62.5962 59.933 59.645 59.933 55.6583C59.933 53.9497 60.1411 52.3965 60.5052 50.9985C60.9214 49.6006 61.4417 48.4098 62.118 47.426C62.7943 46.4423 63.6267 45.5621 64.4591 44.7855C65.3436 44.0607 66.28 43.4911 67.2685 43.0769C68.257 42.6627 69.2455 42.3003 70.2339 42.0932C71.2224 41.8861 72.1589 41.7825 73.0953 41.7825C74.2399 41.7825 75.4364 41.9379 76.581 42.1967C77.7776 42.5074 78.9742 42.9734 80.1707 43.6982C81.3673 44.4231 82.4598 45.2515 83.3963 46.2352C84.3327 47.2707 85.0611 48.5651 85.6334 50.1701C86.2056 51.8269 86.5178 53.6391 86.5178 55.6065C86.5178 59.5932 86.3617 62.5444 86.0496 64.5118C85.7374 66.4275 85.1651 67.7737 84.3848 68.5503C83.6044 69.2752 82.4078 69.6376 80.795 69.6376C79.2863 69.6376 78.1938 69.3269 77.5695 68.6539C76.9452 67.9808 76.633 66.9453 76.633 65.4956C76.633 63.9423 76.633 61.716 76.581 58.8683C76.581 55.9689 76.581 54.105 76.581 53.3284C76.581 52.6553 76.581 52.0858 76.529 51.6198C76.4769 51.2056 76.3729 50.7914 76.2688 50.3772C76.1648 49.963 76.0087 49.6006 75.7486 49.3935C75.4885 49.1864 75.1763 48.9793 74.7601 48.8757C74.3439 48.824 73.8237 48.7204 73.2514 48.7204Z" fill="#FFC300"/>
<path d="M93.6453 63.321C93.6453 61.5607 94.2175 60.1109 95.3101 58.9201C96.4026 57.7811 97.5992 57.1598 98.8998 57.0562C97.183 56.5902 95.9864 55.8136 95.206 54.7781C94.4256 53.7426 94.0094 52.3447 94.0094 50.4808C94.0094 48.0473 95.0499 46.0799 97.0789 44.5266C99.1079 42.9734 101.813 42.2485 105.143 42.2485H113.623C114.976 42.2485 116.12 42.6627 116.953 43.4911C117.837 44.3195 118.253 45.4586 118.253 47.0636V64.0976C118.253 66.2722 117.889 67.7737 117.109 68.6021C116.38 69.4305 115.236 69.8447 113.623 69.8447C110.449 69.8447 108.889 67.8254 108.889 63.787V59.8521L106.652 59.8003C105.715 59.8003 105.039 59.9556 104.519 60.2145C103.998 60.4734 103.582 61.0947 103.27 61.9749C102.958 62.855 102.802 64.1494 102.802 65.8062C102.802 67.1524 102.437 68.1361 101.657 68.8092C100.929 69.4305 99.7842 69.7929 98.1714 69.7929C97.0269 69.7929 96.1425 69.6376 95.5182 69.3269C94.8939 69.0163 94.4256 68.3432 94.0615 67.4112C93.8013 66.4275 93.6453 65.0814 93.6453 63.321ZM102.75 50.1701C102.75 51.5163 103.27 52.4482 104.258 52.966C105.299 53.4837 106.86 53.7944 108.941 53.7944V46.8047C106.704 46.8047 105.091 47.0636 104.154 47.5296C103.218 47.9956 102.75 48.9275 102.75 50.1701Z" fill="#FFC300"/>
<path d="M139.896 49.7042C139.896 49.1346 139.635 48.6687 139.167 48.2545C138.699 47.8403 138.127 47.6332 137.502 47.6332C136.202 47.6332 135.161 48.358 134.277 49.8077C133.444 51.2574 133.028 52.9142 133.028 54.7781C133.028 56.2278 133.288 57.4704 133.861 58.6095C134.381 59.7485 135.161 60.6805 136.202 61.3536C137.242 62.0266 138.439 62.3373 139.792 62.3373C140.78 62.3373 141.769 62.1302 142.653 61.7678C143.589 61.3536 144.318 60.9394 144.89 60.4734C145.462 60.0074 146.035 59.5932 146.659 59.179C147.283 58.7648 147.803 58.6095 148.272 58.6095C148.844 58.6095 149.364 58.8684 149.832 59.3343C150.249 59.8003 150.457 60.3181 150.457 60.784C150.457 61.3536 150.301 62.0266 149.936 62.7515C149.624 63.5281 149.052 64.3048 148.324 65.1332C147.595 65.9616 146.763 66.7382 145.774 67.463C144.786 68.1879 143.589 68.7574 142.133 69.2234C140.676 69.6894 139.167 69.9482 137.554 69.9482C135.473 69.9482 133.497 69.6376 131.728 69.0163C129.907 68.395 128.398 67.463 127.045 66.324C125.745 65.1332 124.704 63.6835 123.924 61.9231C123.144 60.1627 122.779 58.1435 122.779 55.969C122.779 51.6198 124.08 48.1509 126.733 45.6657C129.334 43.1287 132.768 41.8861 137.034 41.8861C139.219 41.8861 141.196 42.2485 143.017 42.9734C144.838 43.6982 146.295 44.682 147.387 45.9763C148.48 47.2707 149 48.6687 149 50.2219C149 51.9823 148.428 53.5873 147.231 55.037C146.035 56.4867 144.526 57.2116 142.601 57.2116C141.508 57.2116 140.572 56.9009 139.688 56.3314C138.803 55.7619 138.387 54.8817 138.387 53.7944C138.387 53.2766 138.647 52.5518 139.115 51.6716C139.635 50.7397 139.896 50.0666 139.896 49.7042Z" fill="#FFC300"/>
<path d="M173.868 56.4867C175.221 56.642 176.521 57.3151 177.614 58.5577C178.758 59.8003 179.331 61.3535 179.331 63.2692C179.331 65.1331 179.175 66.4793 178.914 67.4112C178.654 68.2914 178.186 68.9127 177.562 69.2751C176.938 69.5858 175.949 69.7929 174.596 69.7929C173.556 69.7929 172.671 69.6376 171.995 69.3269C171.319 69.0163 170.799 68.6021 170.486 68.0325C170.174 67.463 170.018 66.6864 170.018 65.8062C170.018 64.6154 169.966 63.6317 169.862 62.855C169.758 62.0784 169.654 61.4053 169.498 60.9393C169.342 60.4734 169.134 60.1109 168.822 59.8521C168.509 59.5932 168.249 59.4379 167.937 59.3861C167.677 59.3343 167.261 59.2825 166.793 59.2825H164.66V63.7352C164.66 65.9098 164.243 67.4112 163.411 68.3432C162.579 69.2751 161.33 69.7411 159.717 69.7411C158.156 69.7411 157.012 69.3269 156.231 68.4467C155.503 67.5666 155.139 66.1169 155.139 64.0459V47.2189C155.139 45.5104 155.451 44.2678 156.075 43.3876C156.7 42.5074 157.74 42.0932 159.197 42.0932C160.029 42.0932 160.706 42.145 161.278 42.2485C161.85 42.3521 162.37 42.5592 162.891 42.818C163.411 43.0769 163.827 43.5429 164.087 44.1642C164.347 44.7855 164.451 45.5621 164.451 46.4941C164.451 47.3225 164.451 48.2544 164.451 49.2899C164.451 50.3254 164.451 51.0503 164.451 51.4645C164.451 51.8269 164.556 52.0858 164.712 52.3447C164.868 52.6036 165.18 52.7589 165.544 52.9142C165.908 53.0695 166.376 53.1213 166.897 53.1213C168.041 53.1213 168.822 52.6553 169.238 51.7752C169.654 50.8432 169.81 48.9793 169.81 46.1834C169.81 44.7855 170.174 43.75 170.955 43.0769C171.735 42.4038 172.932 42.0932 174.596 42.0932C176.417 42.0932 177.614 42.4556 178.238 43.1287C178.862 43.8536 179.175 45.0962 179.175 46.8565C179.175 49.8077 178.654 52.0858 177.614 53.7426C176.521 55.4512 175.273 56.3314 173.868 56.4867Z" fill="#FFC300"/>
<path d="M209.765 43.0769C210.546 43.6465 210.962 44.8891 210.962 46.6494V63.7352C210.962 65.9098 210.546 67.463 209.765 68.395C208.985 69.3269 207.788 69.7411 206.176 69.7411C204.615 69.7411 203.47 69.3269 202.742 68.4467C202.014 67.6183 201.649 66.1169 201.649 63.9941L201.597 59.4379L201.545 55.3476L193.377 67.4112C193.117 67.7737 192.909 68.0325 192.701 68.2914L192.597 68.395C191.817 69.3269 190.62 69.7411 189.007 69.7411C187.447 69.7411 186.302 69.3269 185.574 68.4467C184.845 67.6183 184.481 66.1169 184.481 63.9941L184.377 46.9601C184.377 45.3033 184.793 44.0607 185.678 43.284C186.51 42.5074 187.655 42.0932 189.059 42.0932C190.672 42.0932 191.869 42.4038 192.649 42.9734C193.429 43.5429 193.846 44.7855 193.846 46.5459V56.5902L198.892 49.1864L202.222 44.3713L202.326 44.1642C202.742 43.3876 203.262 42.8698 203.939 42.611C204.563 42.3003 205.395 42.145 206.28 42.145C207.736 42.1968 208.933 42.4556 209.765 43.0769Z" fill="#FFC300"/>
<path d="M264.184 70C283.147 70 298.52 54.7008 298.52 35.8284C298.52 16.9559 283.147 1.6568 264.184 1.6568C245.22 1.6568 229.847 16.9559 229.847 35.8284C229.847 54.7008 245.22 70 264.184 70Z" fill="#FC2849"/>
<path d="M247.692 43.284C247.692 45.4586 247.275 47.0118 246.495 47.9438C245.663 48.8757 244.466 49.3417 242.749 49.3417C241.032 49.3417 239.836 48.9275 239.056 48.0473C238.275 47.2189 237.859 45.7175 237.859 43.5429V26.5607C237.859 24.9039 238.327 23.713 239.212 22.9364C240.096 22.1598 241.293 21.7456 242.749 21.7456H249.981C251.75 21.7456 253.362 22.0045 254.819 22.4704C256.328 22.9364 257.576 23.6095 258.669 24.4379C259.762 25.2663 260.594 26.3536 261.218 27.6479C261.843 28.9423 262.155 30.3402 262.155 31.8935C262.155 33.8092 261.582 35.466 260.49 36.8639C259.397 38.2618 257.941 39.3491 256.12 40.0222C254.299 40.7471 252.27 41.0577 249.981 41.0577H247.692V43.284ZM252.79 31.2722C252.79 30.2885 252.686 29.5118 252.53 28.8905C252.322 28.321 252.01 27.855 251.542 27.5962C251.073 27.2855 250.553 27.1302 249.981 27.0266C249.409 26.9231 248.68 26.8713 247.692 26.8713V35.7249C248.472 35.7249 249.096 35.6731 249.721 35.5178C250.293 35.3624 250.813 35.1553 251.333 34.8447C251.802 34.534 252.166 34.0681 252.426 33.4468C252.634 32.8772 252.79 32.1524 252.79 31.2722Z" fill="white"/>
<path d="M289.572 22.8328C290.352 23.6095 290.769 24.8003 290.769 26.5607V28.2692C290.769 29.0459 290.664 30.858 290.508 33.7574C290.3 36.8121 290.144 38.676 290.04 39.3491C289.78 41.0059 289.364 42.4039 288.844 43.6465C288.323 44.8373 287.543 45.8728 286.554 46.8047C285.566 47.7367 284.317 48.4615 282.809 48.8757C281.3 49.3417 279.479 49.5488 277.398 49.5488C275.733 49.5488 274.172 49.3417 272.716 48.9275C271.259 48.5133 270.167 48.0473 269.334 47.426C268.502 46.8047 267.825 46.1834 267.409 45.6139C266.941 45.0444 266.681 44.5266 266.681 44.0607C266.681 43.6465 266.837 43.2323 267.149 42.8698C267.513 42.5074 267.981 42.3521 268.502 42.3521C268.918 42.3521 269.386 42.4556 269.906 42.6627C270.479 42.8698 270.999 43.1287 271.467 43.3876C271.987 43.6465 272.612 43.9053 273.288 44.1124C273.964 44.3195 274.641 44.4231 275.317 44.4231C277.034 44.4231 278.23 44.0607 278.907 43.3358C279.583 42.6627 279.947 41.6272 279.947 40.3328L279.999 40.2293V39.7115V39.1938C279.427 39.2456 278.803 39.2973 278.23 39.2973C273.912 39.2973 270.791 38.3654 268.762 36.5533C266.785 34.7411 265.744 31.997 265.744 28.2692V26.5607C265.744 25.1109 266.161 23.9719 267.045 23.0917C267.877 22.1598 268.97 21.7456 270.271 21.7456C271.883 21.7456 273.08 22.0562 273.86 22.6257C274.693 23.1953 275.109 24.4379 275.109 26.1982V28.9941C275.161 29.8743 275.265 30.5473 275.525 31.0651C275.785 31.5828 276.149 31.9453 276.566 32.1006C276.982 32.3077 277.554 32.4112 278.23 32.4112C278.907 32.4112 279.479 32.3077 279.895 32.1524C280.311 31.997 280.624 31.7382 280.832 31.3757C281.04 31.0133 281.196 30.7027 281.248 30.3402C281.352 29.9778 281.352 29.5118 281.352 28.9941V26.0947C281.352 25.1627 281.456 24.4379 281.664 23.8166C281.924 23.1953 282.236 22.7293 282.705 22.4704C283.173 22.1598 283.693 21.9527 284.161 21.8491C284.682 21.7456 285.306 21.6938 285.982 21.6938C287.595 21.6938 288.792 22.0562 289.572 22.8328Z" fill="white"/>
</g>
<defs>
<clipPath id="clip0">
<rect width="298" height="70" fill="white"/>
</clipPath>
</defs>
</svg>
