<svg width="50" height="50" viewBox="0 0 50 50" fill="none" xmlns="http://www.w3.org/2000/svg">
<path d="M5.85938 26.4648H8.78906V23.5352H11.7188V20.6055H5.85938V26.4648Z" fill="#D9D9D9"/>
<path d="M8.78906 38.1836H5.85938V44.043H11.7188V41.1133H8.78906V38.1836Z" fill="#D9D9D9"/>
<path d="M45.6055 20.6055H44.1406V14.7461H41.2109V5.85938H29.4922V0H2.92969V14.7461H0V50H44.1406V38.1836H45.6055C48.0286 38.1836 50 36.2122 50 33.7891V25C50 22.5769 48.0286 20.6055 45.6055 20.6055ZM45.6055 23.5352C46.413 23.5352 47.0703 24.1924 47.0703 25C47.0703 25.8076 46.413 26.4648 45.6055 26.4648H44.1406V23.5352H45.6055ZM38.2812 14.7461H35.3516V8.78906H38.2812V14.7461ZM32.4219 8.78906V14.7461H29.4922V8.78906H32.4219ZM26.5625 5.6076C25.3159 5.16548 24.3267 4.17633 23.8846 2.92969H26.5625V5.6076ZM8.53729 2.92969C8.09517 4.17633 7.10602 5.16548 5.85938 5.6076V2.92969H8.53729ZM5.85938 8.64182C8.72498 8.05779 10.9875 5.79529 11.5715 2.92969H20.8508C21.4344 5.79529 23.6969 8.05779 26.5625 8.64182V14.7461H5.85938V8.64182ZM41.2109 47.0703H2.92969V17.6758H41.2109V26.4648C37.9799 26.4648 35.3516 29.0932 35.3516 32.3242C35.3516 35.5553 37.9799 38.1836 41.2109 38.1836V47.0703ZM45.6055 35.2539H41.2109C39.5954 35.2539 38.2812 33.9397 38.2812 32.3242C38.2812 30.7087 39.5954 29.3945 41.2109 29.3945H45.6055C46.1189 29.3945 46.6118 29.3053 47.0703 29.1428V33.7891C47.0703 34.5966 46.413 35.2539 45.6055 35.2539Z" fill="#D9D9D9"/>
<path d="M5.85938 29.3945H8.78906V35.2539H5.85938V29.3945Z" fill="#D9D9D9"/>
<path d="M14.6484 41.1133H20.7031V44.043H14.6484V41.1133Z" fill="#D9D9D9"/>
<path d="M23.6328 41.1133H29.4922V44.043H23.6328V41.1133Z" fill="#D9D9D9"/>
<path d="M32.4219 41.1133H38.2812V44.043H32.4219V41.1133Z" fill="#D9D9D9"/>
<path d="M32.4219 20.6055H38.2812V23.5352H32.4219V20.6055Z" fill="#D9D9D9"/>
<path d="M23.6328 20.6055H29.4922V23.5352H23.6328V20.6055Z" fill="#D9D9D9"/>
<path d="M14.6484 20.6055H20.7031V23.5352H14.6484V20.6055Z" fill="#D9D9D9"/>
<path d="M16.1134 12.3257L14.042 10.2539L16.1134 8.18256L18.1851 10.2539L16.1134 12.3257Z" fill="#D9D9D9"/>
</svg>
