<svg width="50" height="50" viewBox="0 0 50 50" fill="none" xmlns="http://www.w3.org/2000/svg">
<path d="M0 10.1927V16.7782H6.22909V33.3891H3.11454V41.6945H0V50H4.15273V45.8473H26.9927V41.6945H7.26727V37.5418H42.5654V41.6945H31.1454V45.8473H45.68V50H49.8327V41.6945H46.7182V33.3891H43.6036V16.7782H49.8327V10.1927L24.9164 0L0 10.1927ZM10.3818 33.3891V16.7782H14.5345V33.3891H10.3818ZM18.6873 33.3891V16.7782H22.84V33.3891H18.6873ZM26.9927 33.3891V16.7782H31.1454V33.3891H26.9927ZM39.4509 33.3891H35.2982V16.7782H39.4509V33.3891ZM43.6036 12.6255H5.02261L24.9164 4.48679L44.8101 12.6255H43.6036Z" fill="#D9D9D9"/>
</svg>
