<svg width="12" height="20" viewBox="0 0 12 20" fill="none" xmlns="http://www.w3.org/2000/svg">
<path fill-rule="evenodd" clip-rule="evenodd" d="M10.9423 5.1622C10.9423 8.00723 8.62963 10.3221 5.78574 10.3221C2.94184 10.3221 0.629191 8.00723 0.629191 5.1622C0.629191 2.31491 2.94184 0 5.78574 0C8.62963 0 10.9423 2.31491 10.9423 5.1622ZM7.92092 5.1622C7.92092 3.98327 6.96353 3.02475 5.78574 3.02475C4.60907 3.02475 3.65055 3.98327 3.65055 5.1622C3.65055 6.34 4.60907 7.29851 5.78574 7.29851C6.96353 7.29851 7.92092 6.34 7.92092 5.1622ZM10.8666 13.2916C9.93404 13.8771 8.9224 14.293 7.87233 14.5327L10.7558 17.4184C11.3458 18.0084 11.3458 18.9669 10.7558 19.557C10.1658 20.147 9.20951 20.147 8.62061 19.557L5.78688 16.721L2.95542 19.557C2.6604 19.852 2.2727 20.0001 1.88613 20.0001C1.49956 20.0001 1.11299 19.852 0.817971 19.557C0.227942 18.9658 0.227941 18.0084 0.816841 17.4184L3.69917 14.5327C2.6491 14.293 1.63746 13.8771 0.704939 13.2916C-0.000384504 12.8462 -0.211755 11.9126 0.232463 11.2061C0.67555 10.4985 1.60807 10.2849 2.31452 10.7303C4.42484 12.0595 7.1444 12.0595 9.25698 10.7303C9.96343 10.286 10.896 10.4985 11.3402 11.2061C11.7844 11.9126 11.5719 12.8462 10.8666 13.2916Z" fill="#645D75"/>
</svg>
