<svg width="20" height="12" viewBox="0 0 20 12" fill="none" xmlns="http://www.w3.org/2000/svg">
<path d="M19.8523 0.92129C19.6031 0.70705 18.6439 0.714747 17.6923 0.719878C16.7193 0.72501 15.7539 0.731425 15.531 0.821226C15.3244 0.904612 14.8586 2.05278 14.255 3.23559C13.5713 4.57491 12.7261 5.86034 12.1927 5.85264C11.5002 5.8411 11.6605 3.64226 11.7018 2.02841C11.7294 0.958493 11.5591 0.623663 11.4063 0.518468C11.0369 0.26446 10.0314 0.0155825 10.0314 0.0155825C10.0314 0.0155825 7.02618 -0.2179 6.59418 1.1227C7.16643 1.19967 8.1544 1.01237 7.77248 5.14835C7.7537 5.34848 7.31293 7.05341 5.90674 4.74681C5.55988 4.17593 4.21129 0.73399 3.74673 0.719878C2.18901 0.676261 0.660103 0.610835 0.114153 0.92129C-0.382962 1.2048 0.787826 3.58453 2.76502 6.75835C4.38283 9.3536 6.09582 11.3818 9.04971 11.8911C9.60192 11.9476 11.0557 12.0156 11.504 11.7911C11.817 11.6345 11.4364 9.3831 12.4857 9.174C12.9578 9.08035 14.7496 11.5114 15.4321 11.7911C15.8453 11.9604 16.7569 12.0233 17.6897 11.9925C18.699 11.9591 19.8372 12.0835 19.9487 11.3882C20.1954 9.83596 16.9059 7.818 16.807 6.85841C16.7356 6.1708 18.0103 4.90332 18.6727 3.94117C19.4804 2.76862 20.3544 1.35747 19.8523 0.92129Z" fill="#645D75"/>
</svg>
