<svg width="21" height="21" viewBox="0 0 21 21" fill="none" xmlns="http://www.w3.org/2000/svg">
<path d="M10.5 1.89211C13.304 1.89211 13.6351 1.90242 14.7428 1.95394C15.7667 2.00031 16.3219 2.17161 16.6928 2.31587C17.1836 2.5065 17.5326 2.73448 17.8997 3.10157C18.2668 3.46866 18.4948 3.819 18.6854 4.30845C18.8297 4.67812 18.9997 5.23454 19.0473 6.25853C19.0976 7.36623 19.1092 7.69725 19.1092 10.5013C19.1092 13.3053 19.0989 13.6376 19.0473 14.7441C19.001 15.768 18.8297 16.3245 18.6854 16.6941C18.4948 17.1836 18.2681 17.5339 17.8997 17.901C17.5326 18.2681 17.1823 18.4961 16.6928 18.6867C16.3232 18.831 15.7667 19.001 14.7428 19.0486C13.6351 19.0989 13.304 19.1105 10.5 19.1105C7.69596 19.1105 7.36365 19.1002 6.25724 19.0486C5.23325 19.0023 4.67812 18.831 4.30716 18.6867C3.81643 18.4961 3.46737 18.2681 3.10028 17.901C2.73319 17.5339 2.50521 17.1836 2.31458 16.6941C2.17033 16.3245 2.00031 15.768 1.95265 14.7441C1.90242 13.6363 1.89082 13.3053 1.89082 10.5013C1.89082 7.69725 1.90113 7.36623 1.95265 6.25853C1.99902 5.23326 2.17033 4.67812 2.31458 4.30716C2.50521 3.81643 2.73319 3.46737 3.10028 3.10028C3.46737 2.73319 3.81771 2.50521 4.30716 2.31458C4.67683 2.17161 5.23325 2.00031 6.25724 1.95265C7.36365 1.90242 7.69596 1.89211 10.5 1.89211ZM10.5 -1.37576e-07C7.64831 -1.37576e-07 7.29024 0.0115924 6.17094 0.0631135C5.05293 0.114635 4.29042 0.291094 3.62193 0.551276C2.93155 0.819185 2.3455 1.17854 1.76202 1.76202C1.17854 2.3455 0.819185 2.93155 0.551275 3.62193C0.291094 4.29042 0.114635 5.05293 0.0631135 6.17094C0.0115924 7.29024 -2.16191e-07 7.64831 -2.16191e-07 10.5C-2.16191e-07 13.3517 0.0115924 13.7098 0.0631135 14.8291C0.114635 15.9471 0.291094 16.7096 0.551275 17.3781C0.819185 18.0684 1.17854 18.6545 1.76202 19.238C2.3455 19.8215 2.93155 20.1808 3.62193 20.4487C4.29042 20.7089 5.05293 20.8854 6.17094 20.9369C7.29024 20.9884 7.64831 21 10.5 21C13.3517 21 13.7098 20.9884 14.8291 20.9369C15.9471 20.8854 16.7096 20.7089 17.3781 20.4487C18.0684 20.1808 18.6545 19.8215 19.238 19.238C19.8215 18.6545 20.1808 18.0684 20.4487 17.3781C20.7089 16.7096 20.8854 15.9471 20.9369 14.8291C20.9884 13.7098 21 13.3517 21 10.5C21 7.64831 20.9884 7.29024 20.9369 6.17094C20.8854 5.05293 20.7089 4.29042 20.4487 3.62193C20.1808 2.93155 19.8215 2.3455 19.238 1.76202C18.6545 1.17854 18.0684 0.819185 17.3781 0.551276C16.7096 0.291094 15.9471 0.114635 14.8291 0.0631135C13.7098 0.0115924 13.3517 -1.37576e-07 10.5 -1.37576e-07Z" fill="#645D75"/>
<path d="M10.5 5.1084C7.52206 5.1084 5.10829 7.52216 5.10829 10.5001C5.10829 13.478 7.52206 15.8918 10.5 15.8918C13.4779 15.8918 15.8917 13.478 15.8917 10.5001C15.8917 7.52216 13.4779 5.1084 10.5 5.1084ZM10.5 14.0009C8.56665 14.0009 7.0004 12.4334 7.0004 10.5014C7.0004 8.56933 8.56793 7.0018 10.5 7.0018C12.4333 7.0018 13.9995 8.56933 13.9995 10.5014C13.9995 12.4334 12.4333 14.0009 10.5 14.0009Z" fill="#645D75"/>
<path d="M17.3652 4.89568C17.3652 5.59121 16.801 6.15537 16.1055 6.15537C15.41 6.15537 14.8458 5.59121 14.8458 4.89568C14.8458 4.20014 15.41 3.63599 16.1055 3.63599C16.801 3.6347 17.3652 4.19886 17.3652 4.89568Z" fill="#645D75"/>
</svg>
