<svg width="20" height="15" viewBox="0 0 20 15" fill="none" xmlns="http://www.w3.org/2000/svg">
<path d="M19.8004 3.23467C19.8004 3.23467 19.6056 1.76371 19.007 1.1175C18.2456 0.269657 17.394 0.263584 17.0044 0.214997C14.2036 -1.81e-07 10.0059 -2.31681e-07 10.0059 -2.31681e-07H9.99643C9.99643 -2.31681e-07 5.79641 -1.81e-07 2.99917 0.214997C2.60839 0.263584 1.75674 0.268443 0.994179 1.1175C0.395534 1.76371 0.200737 3.23467 0.200737 3.23467C0.200737 3.23467 -4.53106e-09 4.95951 -4.53106e-09 6.68678V6.89449V8.30351C-4.53106e-09 10.0308 0.200737 11.7568 0.200737 11.7568C0.200737 11.7568 0.396721 13.2266 0.994179 13.874C1.75674 14.7231 2.75686 14.6963 3.1999 14.785C4.79986 14.9478 10 15 10 15C10 15 14.2024 14.9927 17.0032 14.7777C17.3928 14.7279 18.2456 14.7243 19.0058 13.874C19.6045 13.2278 19.7993 11.758 19.7993 11.758C19.7993 11.758 20 10.0332 20 8.30594V6.9868V6.68678C20.0012 4.95951 19.8004 3.23467 19.8004 3.23467ZM13.3377 7.28075L7.93562 10.2652L7.93443 5.67009V4.27322L10.3706 5.6288L13.3377 7.28075Z" fill="#645D75"/>
</svg>
